# xmcd
#
# Track frame offsets: 
#        150
#        12416
#        24195
#        35129
#        49737
#        67042
#        80685
#        92553
#        107230
#        122180
#        135326
#        146527
#        163049
#        179251
#        189010
#        207883
#        223474
#
# Disc length: 3179 seconds
#
# Revision: 0
# Processed by: cddbd v1.5.2PL0 Copyright (c) Steve Scherf et al.
# Submitted via: ExactAudioCopyFreeDBPlugin 1.0
#
DISCID=f20c6911
DTITLE=BluesGrass - Live at the Buttonwood Tree
DYEAR=2014
DGENRE=Acoustic
TTITLE0=I'm Blue, I'm Lonesome
TTITLE1=The Girl at the Crossroads Bar
TTITLE2=It's All Your Fault
TTITLE3=That's The Way That The World Goes Around
TTITLE4=Don't This Road Look Rough and Rocky
TTITLE5=California Blues
TTITLE6=Used To Be
TTITLE7=Fare The Well
TTITLE8=Kansas City Blues
TTITLE9=Mercury Blues
TTITLE10=Mind Your Own Business
TTITLE11=One Way Out
TTITLE12=Long Time Gone
TTITLE13=When Will I Be Loved
TTITLE14=Walking In Memphis
TTITLE15=Ride
TTITLE16=Shake, Rattle and Roll
EXTD=
EXTT0=
EXTT1=
EXTT2=
EXTT3=
EXTT4=
EXTT5=
EXTT6=
EXTT7=
EXTT8=
EXTT9=
EXTT10=
EXTT11=
EXTT12=
EXTT13=
EXTT14=
EXTT15=
EXTT16=
PLAYORDER=
